<svg width="26" height="24" viewBox="0 0 26 24" fill="none" xmlns="http://www.w3.org/2000/svg">
<g id="Group 427319812">
<path id="Vector" d="M16.5327 21.8398C18.021 22.6862 19.8155 21.393 19.4835 19.7134L18.8157 16.3358C18.6801 15.6497 18.9127 14.9425 19.4292 14.4709L21.9731 12.1485C23.2374 10.9942 22.5614 8.88826 20.8614 8.68554L17.4439 8.278C16.7489 8.19512 16.1477 7.7549 15.8589 7.1173L14.4386 3.98182C13.7321 2.42194 11.5197 2.41358 10.8013 3.96807L9.35826 7.09078C9.06468 7.72609 8.46037 8.16172 7.76484 8.23944L4.34075 8.62205C2.63947 8.81216 1.94776 10.9127 3.20321 12.0764L5.73067 14.4193C6.24359 14.8948 6.47088 15.6037 6.33008 16.2887L5.63727 19.6596C5.29259 21.3367 7.0773 22.6433 8.57191 21.8082L11.5751 20.13C12.1861 19.7886 12.9311 19.7914 13.5395 20.1374L16.5327 21.8398Z" fill="#919191"/>
<path id="Vector_2" d="M17.3445 14.5557C15.7132 13.6769 16.0521 11.2334 17.861 10.8319C19.8608 10.3879 21.1608 12.8899 19.648 14.2711C19.0204 14.8441 18.0927 14.9587 17.3445 14.5557Z" fill="#919191"/>
<path id="Vector_3" d="M10.912 14.5696C11.7061 13.3605 13.4815 13.3684 14.265 14.5844L16.0774 17.3976C17.1691 19.092 15.2539 21.1122 13.5018 20.1158C12.9171 19.7832 12.2008 19.7803 11.6135 20.1085C9.85776 21.0896 7.96507 19.0563 9.06925 17.3752L10.912 14.5696Z" fill="#919191"/>
<path id="Vector_4" d="M7.81486 14.5218C9.45557 13.657 9.13565 11.2044 7.32801 10.7893C5.33187 10.331 4.012 12.8259 5.51401 14.2182C6.13649 14.7952 7.064 14.9176 7.81486 14.5218Z" fill="#919191"/>
<path id="Vector_5" d="M9.3704 7.06388C10.1356 5.40797 12.6172 5.95746 12.6118 7.78161C12.6073 9.31143 10.7416 10.0565 9.68455 8.95066C9.20215 8.446 9.07754 7.69762 9.3704 7.06388Z" fill="#919191"/>
</g>
</svg>
