<svg width="15" height="16" viewBox="0 0 15 16" fill="none" xmlns="http://www.w3.org/2000/svg">
<g id="instagram (4) 1">
<g clip-path="url(#clip0_1_355)">
<path id="Vector" d="M9.9996 8C9.9996 6.5273 8.88065 5.33312 7.5 5.33312C6.11934 5.33312 4.9998 6.5273 4.9998 8C4.9998 9.4727 6.11934 10.6669 7.5 10.6669C8.88065 10.6669 9.9996 9.4727 9.9996 8ZM11.3512 8C11.3512 10.2688 9.62702 12.1079 7.5 12.1079C5.37298 12.1079 3.64883 10.2688 3.64883 8C3.64883 5.73118 5.37298 3.89208 7.5 3.89208C9.62702 3.89208 11.3512 5.73118 11.3512 8ZM4.3964 3.72924C4.3964 4.25913 3.99354 4.6895 3.49616 4.6895C2.99939 4.6895 2.59592 4.25913 2.59592 3.72924C2.59592 3.19935 2.99879 2.76963 3.49616 2.76963C3.99354 2.76963 4.3964 3.19935 4.3964 3.72924ZM10.5303 14.5118C11.2615 14.4763 11.6589 14.3464 11.9231 14.2365C12.2732 14.0911 12.5228 13.9179 12.7857 13.6381C13.0481 13.3583 13.211 13.0921 13.3467 12.7186C13.4497 12.4368 13.5715 12.0129 13.6048 11.233C13.6412 10.3897 13.6484 10.1363 13.6484 8C13.6484 5.86365 13.6405 5.61099 13.6048 4.76704C13.5715 3.98708 13.4491 3.56381 13.3467 3.28142C13.2104 2.90792 13.0481 2.64168 12.7857 2.36123C12.5234 2.08142 12.2738 1.90759 11.9231 1.76284C11.6589 1.65299 11.2615 1.5231 10.5303 1.48756C9.7397 1.44879 9.50222 1.44103 7.5 1.44103C5.49717 1.44103 5.2603 1.44943 4.4691 1.48756C3.73788 1.5231 3.34107 1.65363 3.07633 1.76284C2.72617 1.90759 2.47657 2.08142 2.21365 2.36123C1.95133 2.64103 1.78897 2.90792 1.65267 3.28142C1.54968 3.56317 1.42791 3.98708 1.39459 4.76704C1.35824 5.61099 1.35097 5.86365 1.35097 8C1.35097 10.1357 1.35824 10.389 1.39459 11.233C1.42791 12.0129 1.55028 12.4368 1.65267 12.7186C1.78897 13.0921 1.95133 13.3583 2.21365 13.6381C2.47597 13.9179 2.72617 14.0911 3.07633 14.2365C3.34047 14.3464 3.73788 14.4763 4.4691 14.5118C5.25969 14.5506 5.49717 14.5583 7.5 14.5583C9.50222 14.5583 9.7397 14.5506 10.5303 14.5118ZM10.5921 0.0484653C11.3905 0.0872375 11.9358 0.222294 12.4126 0.420032C12.9057 0.624233 13.3237 0.898223 13.7411 1.34281C14.1579 1.7874 14.4148 2.23328 14.6062 2.75994C14.7916 3.2685 14.9182 3.85008 14.9546 4.70178C14.9915 5.55477 15 5.82746 15 8C15 10.1725 14.9915 10.4452 14.9546 11.2982C14.9182 12.1499 14.7916 12.7315 14.6062 13.2401C14.4148 13.7661 14.1585 14.2126 13.7411 14.6572C13.3243 15.1018 12.9063 15.3751 12.4126 15.58C11.9352 15.7777 11.3905 15.9128 10.5921 15.9515C9.7918 15.9903 9.53675 16 7.5 16C5.46264 16 5.20759 15.991 4.40792 15.9515C3.60945 15.9128 3.06422 15.7777 2.58744 15.58C2.09431 15.3751 1.67629 15.1018 1.25888 14.6572C0.842083 14.2126 0.585823 13.7661 0.393779 13.2401C0.2084 12.7315 0.0811777 12.1499 0.045435 11.2982C0.00908566 10.4446 0.000605583 10.1725 0.000605583 8C0.000605583 5.82746 0.00908566 5.55477 0.045435 4.70178C0.0817842 3.85008 0.2084 3.2685 0.393779 2.75994C0.585823 2.23393 0.842083 1.78805 1.25888 1.34281C1.67569 0.898223 2.0943 0.624233 2.58683 0.420032C3.06422 0.222294 3.60945 0.0865913 4.40731 0.0484653C5.20699 0.00969305 5.46264 0 7.49939 0C9.53675 0 9.7918 0.00904685 10.5921 0.0484653Z" fill="white"/>
</g>
</g>
<defs>
<clipPath id="clip0_1_355">
<rect width="15" height="16" rx="7" transform="matrix(-1 0 0 1 15 0)" fill="white"/>
</clipPath>
</defs>
</svg>
