<svg width="11" height="11" viewBox="0 0 11 11" fill="none" xmlns="http://www.w3.org/2000/svg">
<g id="Layer 2">
<g id="checkmark-circle">
<path id="Vector" d="M3.85893 4.68129C3.76405 4.5864 3.63535 4.53309 3.50116 4.53309C3.36697 4.53309 3.23828 4.5864 3.14339 4.68129C3.0485 4.77617 2.99519 4.90487 2.99519 5.03906C2.99519 5.17325 3.0485 5.30195 3.14339 5.39683L4.65511 6.90855C4.70219 6.95525 4.75803 6.9922 4.81943 7.01728C4.88082 7.04236 4.94656 7.05507 5.01288 7.05468C5.08186 7.0525 5.14966 7.03616 5.21207 7.00669C5.27448 6.97722 5.33017 6.93524 5.37569 6.88336L8.90303 2.85211C8.98448 2.75099 9.02375 2.62233 9.01266 2.49296C9.00156 2.3636 8.94096 2.24351 8.84349 2.15773C8.74601 2.07195 8.61919 2.02711 8.48947 2.03256C8.35974 2.038 8.23712 2.09331 8.14717 2.18695L5.01288 5.81507L3.85893 4.68129Z" fill="#013A63" fill-opacity="0.57"/>
<path id="Vector_2" d="M9.54804 4.53515C9.41439 4.53515 9.28622 4.58824 9.19172 4.68274C9.09722 4.77725 9.04413 4.90542 9.04413 5.03906C9.04413 6.10821 8.61941 7.13358 7.86341 7.88958C7.1074 8.64559 6.08204 9.07031 5.01288 9.07031C4.21676 9.06994 3.43856 8.83386 2.77643 8.39182C2.1143 7.94978 1.59788 7.32158 1.29229 6.58644C0.986695 5.8513 0.90562 5.04213 1.05928 4.26097C1.21295 3.47982 1.59447 2.76165 2.15574 2.19703C2.52898 1.81879 2.97392 1.51879 3.46451 1.3146C3.9551 1.1104 4.4815 1.0061 5.01288 1.00781C5.33511 1.00983 5.65615 1.047 5.97031 1.11867C6.03605 1.13901 6.10526 1.14566 6.17367 1.13822C6.24209 1.13078 6.30825 1.10941 6.36809 1.07543C6.42792 1.04144 6.48017 0.995553 6.52159 0.940602C6.56301 0.885651 6.59275 0.822798 6.60895 0.755916C6.62515 0.689035 6.62748 0.619544 6.6158 0.551727C6.60412 0.483909 6.57867 0.419204 6.54102 0.361599C6.50338 0.303994 6.45433 0.25471 6.39691 0.216786C6.33948 0.178862 6.2749 0.153102 6.20714 0.141094C5.81568 0.0490012 5.41503 0.00166663 5.01288 0C4.01734 0.00517185 3.04563 0.305125 2.22039 0.862008C1.39515 1.41889 0.753353 2.20774 0.376002 3.12902C-0.00134921 4.0503 -0.0973477 5.06271 0.100121 6.03849C0.29759 7.01427 0.779676 7.90969 1.48554 8.61175C2.42114 9.54778 3.68945 10.075 5.01288 10.0781C6.34933 10.0781 7.63103 9.54722 8.57604 8.60221C9.52105 7.65721 10.0519 6.3755 10.0519 5.03906C10.0519 4.90542 9.99886 4.77725 9.90436 4.68274C9.80985 4.58824 9.68168 4.53515 9.54804 4.53515Z" fill="#013A63" fill-opacity="0.57"/>
</g>
</g>
</svg>
