<svg width="14" height="14" viewBox="0 0 14 14" fill="none" xmlns="http://www.w3.org/2000/svg">
<path id="Vector" d="M0 1.62626C0 1.15487 0.157662 0.765984 0.472973 0.459596C0.788284 0.153194 1.1982 0 1.7027 0C2.1982 0 2.59909 0.150832 2.90541 0.452525C3.22072 0.763636 3.37838 1.16901 3.37838 1.66869C3.37838 2.12121 3.22523 2.49831 2.91892 2.8C2.60361 3.11111 2.18919 3.26667 1.67568 3.26667H1.66216C1.16666 3.26667 0.76577 3.11111 0.459459 2.8C0.153149 2.48889 0 2.09764 0 1.62626ZM1.67568 14C0.847249 14 0.175676 13.3284 0.175676 12.5V6.05353C0.175676 5.22511 0.847249 4.55354 1.67568 4.55354C2.5041 4.55354 3.17568 5.22511 3.17568 6.05354V12.5C3.17568 13.3284 2.5041 14 1.67568 14ZM4.84686 12.4951C4.84219 13.3246 5.51308 14 6.34258 14C7.16839 14 7.83784 13.3306 7.83784 12.5047V8.72525C7.83784 8.39528 7.87388 8.14073 7.94595 7.96162C8.07207 7.64107 8.26351 7.37002 8.52027 7.14848C8.77703 6.92693 9.09909 6.81616 9.48649 6.81616C10.4955 6.81616 11 7.52794 11 8.95152V12.5C11 13.3284 11.6716 14 12.5 14C13.3284 14 14 13.3284 14 12.5V8.58384C14 7.18855 13.6847 6.1303 13.0541 5.40909C12.4234 4.68788 11.5901 4.32727 10.5541 4.32727C9.39189 4.32727 8.48649 4.8505 7.83784 5.89697V5.92003C7.83784 5.92291 7.8355 5.92525 7.83261 5.92525C7.82877 5.92525 7.82624 5.92124 7.8279 5.91777L7.83784 5.89697C7.83784 5.15501 7.23636 4.55354 6.4944 4.55354H6.38258C5.54476 4.55354 4.8584 5.25989 4.86232 6.09771C4.86402 6.46107 4.86486 6.88439 4.86486 7.36768C4.86486 8.65281 4.85886 10.3619 4.84686 12.4951Z" fill="white"/>
</svg>
