<svg width="14" height="20" viewBox="0 0 14 20" fill="none" xmlns="http://www.w3.org/2000/svg">
<path id="Vector" d="M2.13859 19.9998C1.96201 20.0023 1.78621 19.9758 1.61797 19.9213C1.12229 19.7438 0.69698 19.4074 0.406318 18.9628C0.115656 18.5182 -0.0245549 17.9897 0.00687924 17.457V2.54284C-0.0400902 1.92265 0.15483 1.30855 0.54963 0.832897C0.94443 0.357245 1.5075 0.0581232 2.11748 0H11.8825C12.4925 0.0581232 13.0556 0.357245 13.4504 0.832897C13.8452 1.30855 14.0401 1.92265 13.9931 2.54284V17.457C14.0246 17.9897 13.8843 18.5182 13.5937 18.9628C13.303 19.4074 12.8777 19.7438 12.382 19.9213C11.9694 20.0389 11.5298 20.012 11.1341 19.8448C10.7384 19.6776 10.4097 19.38 10.2011 18.9999L7 13.9142L3.79892 18.9999C3.62893 19.2963 3.3872 19.5437 3.09663 19.7187C2.80607 19.8937 2.4763 19.9905 2.13859 19.9998ZM7 11.8785C7.11771 11.8787 7.2335 11.9089 7.33675 11.9663C7.43999 12.0237 7.5274 12.1065 7.59097 12.207L11.383 18.2284C11.4343 18.3427 11.5216 18.4364 11.6312 18.4946C11.7408 18.5528 11.8664 18.5723 11.988 18.5499C12.1892 18.4559 12.3557 18.2993 12.4632 18.1028C12.5708 17.9063 12.6138 17.6801 12.5861 17.457V2.54284C12.5861 1.8857 12.2132 1.42856 11.8825 1.42856H2.11748C1.78682 1.42856 1.41395 1.8857 1.41395 2.54284V17.457C1.38142 17.6834 1.42213 17.9144 1.52996 18.1154C1.63779 18.3163 1.80692 18.4763 2.01195 18.5713C2.13365 18.5937 2.25923 18.5743 2.36882 18.516C2.47841 18.4578 2.56574 18.3641 2.61699 18.2499L6.40903 12.2285C6.47007 12.1239 6.55637 12.0369 6.65979 11.9756C6.7632 11.9144 6.8803 11.8809 7 11.8785Z" fill="#468FAF"/>
</svg>
