<svg width="27" height="24" viewBox="0 0 27 24" fill="none" xmlns="http://www.w3.org/2000/svg">
<path id="Vector" d="M23.86 10.0064C20.222 7.81097 18.938 4.29827 18.5813 0.126949C18.5813 -0.238956 17.654 0.273312 17.654 0.566036C17.2973 4.22509 17.226 7.81097 13.2313 9.56731C12.0186 10.0796 10.9486 10.7382 9.87863 11.5432C9.73596 11.6164 9.45063 11.9091 9.73596 11.9823C10.7346 12.2018 10.378 12.1287 11.448 12.0555C13.8733 11.8359 15.086 13.5923 16.0846 15.495C17.1546 17.4709 16.7266 20.1786 17.868 21.9349C17.9393 22.0813 18.2246 21.9349 18.296 21.9349C19.152 21.4958 19.2946 21.2763 19.366 20.1786C19.5086 18.4954 20.0793 16.8122 20.7926 15.2754C22.0053 12.7873 24.4307 12.4214 26.4993 11.3237C26.5707 11.3237 27.2127 10.8846 26.9273 10.7382C25.9286 10.3723 24.93 10.3723 23.86 10.0064C23.5746 9.93322 22.79 10.5918 23.004 10.665C23.9313 10.9578 23.7173 10.8846 24.6447 11.0309C26.0713 11.2505 23.5746 12.0555 23.3606 12.1287C22.576 12.5677 21.506 13.2996 20.864 14.0314C19.9366 15.2023 19.152 16.5927 18.8666 18.1295C18.6526 19.0809 18.296 20.6908 18.51 21.1299C18.0106 20.3249 18.0106 18.2027 17.7966 17.1781C17.3686 15.0559 16.0133 12.9336 14.3013 11.7627C13.8733 11.47 13.3026 11.47 12.8033 11.3968C10.7346 11.1041 13.0886 10.1528 14.016 9.71368C17.7966 8.03051 18.082 3.78601 18.51 0.126949C18.2246 0.273312 17.868 0.419674 17.5826 0.566036C17.9393 4.73736 19.2946 8.4696 22.9326 10.665C23.2893 10.8114 24.074 10.1528 23.86 10.0064ZM8.52329 15.9341C6.52596 14.6168 5.88396 12.4946 5.74129 10.2259C5.66996 9.71368 4.81396 9.27459 4.74262 9.93322C4.59996 11.1773 4.45729 12.4946 4.17196 13.6655C3.74396 15.2754 1.31862 15.8609 0.177284 16.8122C-0.250717 17.1782 0.177283 17.6904 0.605284 17.6904C2.81662 17.91 3.67262 18.6418 4.38596 20.8372C4.67129 21.7154 4.45729 22.8131 4.95662 23.6181C5.09929 23.9108 5.38462 24.1304 5.74129 23.9108C6.38329 23.6181 6.31196 22.6667 6.38329 22.0081C6.81129 19.3004 8.3093 18.349 10.592 17.2513C11.02 17.0318 10.5206 16.4463 10.3066 16.3732C9.52196 16.0804 9.45063 16.1536 8.45196 15.8609C7.80996 15.6413 7.88129 16.5927 8.38063 16.8122C8.87996 16.9586 9.8073 17.1782 10.2353 17.3245C10.164 17.0318 10.0213 16.7391 9.94996 16.4463C8.5233 17.105 7.31063 17.5441 6.38329 18.9345C5.95529 19.5199 5.52729 22.8863 5.09929 23.1058C5.38462 23.179 5.59862 23.3254 5.88396 23.3985C5.02796 22.0081 5.38462 20.0322 4.45729 18.5686C3.31595 16.7391 2.38862 16.8854 0.462618 16.6659C0.533951 17.0318 0.676618 17.3245 0.819285 17.6172C2.10329 16.5927 3.52996 16.1536 4.67129 14.9095C5.59862 13.885 5.59862 11.5432 5.74129 10.2259C5.38462 10.1528 5.09929 10.0064 4.74262 9.93322C4.95662 12.7873 5.81262 15.1291 8.23796 16.7391C8.80863 17.105 9.02263 16.3 8.52329 15.9341Z" fill="#468FAF"/>
</svg>
