<svg width="16" height="16" viewBox="0 0 16 16" fill="none" xmlns="http://www.w3.org/2000/svg">
<g id="whatsapp 1">
<path id="Vector" d="M11.0667 9.33332C10.9334 9.26665 10.0667 8.86665 9.93337 8.79998C9.80004 8.73332 9.66671 8.73332 9.53337 8.86665C9.40004 8.99998 9.13337 9.39998 9.00004 9.53332C8.93337 9.66665 8.80004 9.66665 8.66671 9.59998C8.20004 9.39998 7.73337 9.13332 7.33337 8.79998C7.00004 8.46665 6.66671 8.06665 6.40004 7.66665C6.33337 7.53332 6.40004 7.39998 6.46671 7.33332C6.53337 7.26665 6.60004 7.13332 6.73337 7.06665C6.80004 6.99998 6.86671 6.86665 6.86671 6.79998C6.93337 6.73332 6.93337 6.59998 6.86671 6.53332C6.80004 6.46665 6.46671 5.66665 6.33337 5.33332C6.26671 4.86665 6.13337 4.86665 6.00004 4.86665H5.66671C5.53337 4.86665 5.33337 4.99998 5.26671 5.06665C4.86671 5.46665 4.66671 5.93332 4.66671 6.46665C4.73337 7.06665 4.93337 7.66665 5.33337 8.19998C6.06671 9.26665 7.00004 10.1333 8.13337 10.6666C8.46671 10.8 8.73337 10.9333 9.06671 11C9.40004 11.1333 9.73337 11.1333 10.1334 11.0666C10.6 11 11 10.6666 11.2667 10.2666C11.4 9.99998 11.4 9.73332 11.3334 9.46665L11.0667 9.33332ZM12.7334 3.26665C10.1334 0.66665 5.93337 0.66665 3.33337 3.26665C1.20004 5.39998 0.800041 8.66665 2.26671 11.2666L1.33337 14.6666L4.86671 13.7333C5.86671 14.2666 6.93337 14.5333 8.00004 14.5333C11.6667 14.5333 14.6 11.6 14.6 7.93332C14.6667 6.19998 13.9334 4.53332 12.7334 3.26665ZM10.9334 12.6C10.0667 13.1333 9.06671 13.4667 8.00004 13.4667C7.00004 13.4667 6.06671 13.2 5.20004 12.7333L5.00004 12.6L2.93337 13.1333L3.46671 11.1333L3.33337 10.9333C1.73337 8.26665 2.53337 4.93332 5.13337 3.26665C7.73337 1.59998 11.0667 2.46665 12.6667 4.99998C14.2667 7.59998 13.5334 11 10.9334 12.6Z" fill="white"/>
</g>
</svg>
